<svg id="Layer_1" xmlns="http://www.w3.org/2000/svg" viewBox="0 0 197 172.2"><style>.st0{fill:#166db1}</style><path class="st0" d="M36.4 77.2c0-17.2 5.8-33.1 15.5-45.8-16.7 13.8-27.3 34.8-27.3 58.2 0 41.7 33.8 75.5 75.5 75.5 24.5 0 46.2-11.7 60-29.7-13.1 10.8-29.9 17.4-48.2 17.4-41.7-.1-75.5-33.9-75.5-75.6z"/><path class="st0" d="M70.6 59.7c0-13.6 4.6-26.2 12.3-36.2-13.2 11-21.6 27.5-21.6 46 0 33 26.7 59.7 59.7 59.7 19.4 0 36.6-9.2 47.5-23.5-10.3 8.6-23.6 13.7-38.1 13.7-33 .1-59.8-26.7-59.8-59.7z"/><path class="st0" d="M103.9 46.2c0-9.3 3.1-17.8 8.3-24.7-9 7.5-14.7 18.7-14.7 31.3 0 22.5 18.2 40.7 40.7 40.7 13.2 0 24.9-6.3 32.3-16-7 5.8-16.1 9.3-25.9 9.3-22.5.1-40.7-18.1-40.7-40.6z"/></svg>