<?xml version="1.0" encoding="utf-8"?>
<!-- Generator: Adobe Illustrator 16.0.0, SVG Export Plug-In . SVG Version: 6.00 Build 0)  -->
<!DOCTYPE svg PUBLIC "-//W3C//DTD SVG 1.1 Tiny//EN" "http://www.w3.org/Graphics/SVG/1.1/DTD/svg11-tiny.dtd">
<svg version="1.1" baseProfile="tiny" id="Layer_1" xmlns="http://www.w3.org/2000/svg" xmlns:xlink="http://www.w3.org/1999/xlink"
	 x="0px" y="0px" width="730.062px" height="833.57px" viewBox="0 0 730.062 833.57" overflow="scroll" xml:space="preserve">
<g>
	<path fill-rule="evenodd" fill="#21A691" d="M0,0c243.69,0,484.263,0,727.485,0c-1.82,23.683-3.311,46.505-5.361,69.28
		c-10.849,120.511-21.638,241.03-32.843,361.515c-9.379,100.867-19.48,201.667-28.687,302.552
		c-0.875,9.586-4.787,13.547-13.063,15.917c-91.873,26.314-183.745,52.633-275.513,79.305c-8.893,2.587-16.555,0.425-24.665-1.905
		c-89.144-25.639-178.246-51.403-267.501-76.638c-11.356-3.209-14.885-8.724-15.917-20.47
		c-14.616-166.801-29.931-333.538-44.98-500.298c-5.942-65.871-11.689-131.752-17.4-197.64C0.713,21.874,0.574,12.073,0,0z
		 M283.894,429.721c24.215,8.28,50.034-1.061,76.518,6.231c0,110.044,0,219.588,0,327.582c6.086,4.151,10.246,3.619,14.352,2.469
		c74.276-20.765,148.507-41.677,222.85-62.203c8.291-2.287,11.294-6.737,11.844-14.81c2.644-39.118,5.487-78.229,8.483-117.323
		c2.834-37.002,5.792-73.991,8.971-110.959c5.331-62.04,10.753-124.068,16.373-186.076c3.792-41.788,9.85-83.47,11.376-125.325
		c1.09-29.823,9.504-59.52,3.933-90.18c-99.729,0-198.405,0-298.739,0c0,32.83,0,63.752,0,94.681c-75.473,0-150.946,0-226.87,0
		c7.16,83.499,13.733,162.608,20.79,241.671c6.247,69.992,13.015,139.936,19.605,209.9c0.568,6.014-0.883,13.064,7.526,15.454
		c31.06,8.825,62.091,17.748,95.095,27.196c-9.883-74.588-19.264-145.402-28.691-216.594
		C260.2,427.653,272.113,429.9,283.894,429.721z"/>
	<path fill-rule="evenodd" fill="#FEFFFF" d="M283.894,429.721c-11.781,0.179-23.693-2.068-36.584,1.716
		c9.428,71.191,18.808,142.006,28.691,216.594c-33.004-9.448-64.035-18.371-95.095-27.196c-8.409-2.39-6.958-9.44-7.526-15.454
		c-6.591-69.965-13.358-139.908-19.605-209.9c-7.057-79.063-13.629-158.172-20.79-241.671c75.923,0,151.396,0,226.87,0
		c75.522,0,151.044,0,227.644,0c-1.383,15.436-2.504,26.537-3.354,37.654c-5.748,75.542-11.612,151.084-16.959,226.653
		c-0.792,11.24-6.153,14.018-16.134,14.337c-15.232,0.482-30.722-2.484-47.261,2.467c12.697,62.128,25.274,123.675,38.232,187.075
		c-36.681,10.405-72.136,20.462-106.995,30.353c-6.091-7.133-6.153-14.212-6.796-21.187
		c-5.752-62.149-11.803-124.268-17.117-186.454c-0.924-10.799-5.072-14.891-15.524-14.851
		C358.36,430.004,321.126,429.794,283.894,429.721z M241.272,332.254l0.003,0.157c1.712,1.089,3.42,3.126,5.138,3.126
		c77.35,0.03,154.705-0.107,232.061-0.285c6.106-0.015,11.332-1.946,12.061-9.047c2.764-26.909,5.373-53.832,8.212-82.509
		c-47.78,0-93.333,0-138.885,0c-41.3,0-82.599,0-121.573,0c0,23.5,0,45.167,0,66.839C237.79,317.98,235.074,325.73,241.272,332.254z
		"/>
	<path fill-rule="evenodd" fill="#6EC9C2" d="M283.894,429.721c37.233,0.073,74.467,0.283,111.695,0.136
		c10.452-0.04,14.601,4.052,15.524,14.851c5.314,62.187,11.365,124.305,17.117,186.454c0.643,6.975,0.705,14.054,6.796,21.187
		c34.859-9.891,70.314-19.947,106.995-30.353c-12.958-63.4-25.535-124.947-38.232-187.075c16.539-4.951,32.029-1.984,47.261-2.467
		c9.981-0.319,15.341-3.097,16.134-14.337c5.348-75.569,11.211-151.111,16.959-226.653c0.85-11.118,1.972-22.219,3.354-37.654
		c-76.599,0-152.122,0-227.644,0c0-30.929,0-61.852,0-94.681c100.334,0,199.01,0,298.739,0c5.571,30.66-2.843,60.357-3.933,90.18
		c-1.526,41.854-7.584,83.537-11.376,125.325c-5.62,62.008-11.042,124.036-16.373,186.076c-3.179,36.968-6.137,73.957-8.971,110.959
		c-2.996,39.094-5.839,78.205-8.483,117.323c-0.55,8.072-3.553,12.522-11.844,14.81c-74.343,20.526-148.574,41.438-222.85,62.203
		c-4.106,1.15-8.265,1.683-14.352-2.469c0-107.994,0-217.538,0-327.582C333.927,428.661,308.108,438.001,283.894,429.721z"/>
	<path fill-rule="evenodd" fill="#6EC9C2" d="M359.862,243.696c45.552,0,91.104,0,138.885,0c-2.839,28.678-5.448,55.6-8.212,82.509
		c-0.729,7.101-5.955,9.032-12.061,9.047c-77.356,0.178-154.711,0.315-232.061,0.285c-1.717,0-3.426-2.037-5.138-3.126
		c38.859,0,77.718,0,118.586,0C359.862,300.609,359.862,272.152,359.862,243.696z"/>
	<path fill-rule="evenodd" fill="#21A691" d="M359.862,243.696c0,28.456,0,56.913,0,88.715c-40.868,0-79.727,0-118.586,0
		l-0.003-0.157c0.132-7.394,2.393-15.082-2.983-21.719c0-21.672,0-43.339,0-66.839C277.263,243.696,318.562,243.696,359.862,243.696
		z"/>
	<path fill-rule="evenodd" fill="#6EC9C2" d="M238.289,310.536c5.376,6.637,3.116,14.325,2.983,21.719
		C235.074,325.73,237.79,317.98,238.289,310.536z"/>
</g>
</svg>
