<?xml version="1.0" encoding="iso-8859-1"?>
<!-- Generator: Adobe Illustrator 19.0.0, SVG Export Plug-In . SVG Version: 6.00 Build 0)  -->
<svg xmlns="http://www.w3.org/2000/svg" xmlns:xlink="http://www.w3.org/1999/xlink" version="1.1" id="Layer_1" x="0px" y="0px" viewBox="0 0 481.882 481.882" style="enable-background:new 0 0 481.882 481.882;" xml:space="preserve">
<path style="fill:#2C0900;" d="M481.882,355.264c0,12.085-9.811,21.896-21.903,21.896H21.903C9.811,377.16,0,367.349,0,355.264  V48.599c0-12.092,9.811-21.903,21.903-21.903h438.076c12.092,0,21.903,9.811,21.903,21.903V355.264z"/>
<rect x="175.209" y="377.16" style="fill:#FFE4DE;" width="131.426" height="56.124"/>
<g>
	<path style="fill:#FFFFFF;" d="M350.456,444.239c0,6.054-4.894,10.948-10.948,10.948H142.374c-6.054,0-10.948-4.894-10.948-10.948   s4.894-10.955,10.948-10.955h197.135C345.562,433.284,350.456,438.185,350.456,444.239z"/>
	<path style="fill:#FFFFFF;" d="M481.882,355.264V289.54H0v65.724c0,12.085,9.811,21.896,21.903,21.896h438.076   C472.072,377.16,481.882,367.349,481.882,355.264z"/>
</g>
<path style="fill:#FFC7B2;" d="M240.941,364.149c-16.226,0-29.432-13.207-29.432-29.432c0-16.226,13.207-29.425,29.432-29.425  c16.218,0,29.432,13.199,29.432,29.425C270.374,350.942,257.16,364.149,240.941,364.149z M240.941,320.35  c-7.928,0-14.374,6.438-14.374,14.366c0,7.928,6.445,14.374,14.374,14.374s14.374-6.445,14.374-14.374  C255.315,326.788,248.87,320.35,240.941,320.35z"/>
<path style="fill:#7A1C05;" d="M0,48.599V289.54h148.51L411.354,26.696H21.903C9.811,26.696,0,36.506,0,48.599z"/>
<circle style="fill:#DE5735;" cx="135.529" cy="154.01" r="82.824"/>
<path style="fill:#FFC7B2;" d="M218.353,154.01c0,45.756-37.067,82.824-82.824,82.824c-34.786,0-64.527-21.399-76.815-51.765  l153.013-63.706C216.004,131.369,218.353,142.415,218.353,154.01z"/>
<path style="fill:#AC2200;" d="M218.488,154.048c0,29.192-15.119,54.867-37.963,69.64l-44.792-70.603l76.122-31.684  C216.132,131.407,218.488,142.453,218.488,154.048z"/>
<g>
	<path style="fill:#FF2F00;" d="M211.727,121.363l-76.198,31.752V71.187C169.69,71.187,199.032,91.893,211.727,121.363z"/>
	<circle style="fill:#FF2F00;" cx="293.647" cy="191.657" r="15.059"/>
</g>
<rect x="338.824" y="184.128" style="fill:#99412B;" width="60.235" height="15.059"/>
<circle style="fill:#FF2F00;" cx="293.647" cy="116.363" r="15.059"/>
<rect x="338.824" y="108.834" style="fill:#99412B;" width="60.235" height="15.059"/>
<g>
</g>
<g>
</g>
<g>
</g>
<g>
</g>
<g>
</g>
<g>
</g>
<g>
</g>
<g>
</g>
<g>
</g>
<g>
</g>
<g>
</g>
<g>
</g>
<g>
</g>
<g>
</g>
<g>
</g>
</svg>
