<?xml version="1.0" encoding="iso-8859-1"?>
<!-- Generator: Adobe Illustrator 19.0.0, SVG Export Plug-In . SVG Version: 6.00 Build 0)  -->
<svg version="1.1" id="Layer_1" xmlns="http://www.w3.org/2000/svg" xmlns:xlink="http://www.w3.org/1999/xlink" x="0px" y="0px"
	 viewBox="0 0 481.882 481.882" style="enable-background:new 0 0 481.882 481.882;" xml:space="preserve">
<path style="fill:#FFFFFF;" d="M421.647,0c33.28,0,60.235,26.955,60.235,60.235v361.412c0,33.28-26.955,60.235-60.235,60.235H60.235
	C26.955,481.882,0,454.927,0,421.647V60.235C0,26.955,26.955,0,60.235,0H421.647z"/>
<path style="fill:#2C0900;" d="M421.647,0H60.235C26.97,0,0,26.97,0,60.235v30.118h481.882V60.235
	C481.882,26.97,454.912,0,421.647,0z"/>
<g>
	<circle style="fill:#FF2F00;" cx="67.765" cy="45.176" r="15.059"/>
	<circle style="fill:#FF2F00;" cx="128" cy="45.176" r="15.059"/>
	<circle style="fill:#FF2F00;" cx="188.235" cy="45.176" r="15.059"/>
	<rect x="67.765" y="135.529" style="fill:#FF2F00;" width="338.824" height="105.412"/>
	<rect x="195.765" y="278.588" style="fill:#FF2F00;" width="210.824" height="45.176"/>
	<rect x="195.765" y="353.882" style="fill:#FF2F00;" width="210.824" height="60.235"/>
	<rect x="67.765" y="278.588" style="fill:#FF2F00;" width="90.353" height="143.059"/>
</g>
<g>
</g>
<g>
</g>
<g>
</g>
<g>
</g>
<g>
</g>
<g>
</g>
<g>
</g>
<g>
</g>
<g>
</g>
<g>
</g>
<g>
</g>
<g>
</g>
<g>
</g>
<g>
</g>
<g>
</g>
</svg>
