<?xml version="1.0" encoding="iso-8859-1"?>
<!-- Generator: Adobe Illustrator 19.0.0, SVG Export Plug-In . SVG Version: 6.00 Build 0)  -->
<svg version="1.1" id="Layer_1" xmlns="http://www.w3.org/2000/svg" xmlns:xlink="http://www.w3.org/1999/xlink" x="0px" y="0px"
	 viewBox="0 0 481.882 481.882" style="enable-background:new 0 0 481.882 481.882;" xml:space="preserve">
<path style="fill:#FFC7B2;" d="M198.882,166.377C89.043,166.377,0,129.28,0,83.509v314.895c0,45.764,89.043,82.869,198.882,82.869
	s198.882-37.105,198.882-82.869V83.509C397.764,129.28,308.721,166.377,198.882,166.377z"/>
<g>
	<path style="fill:#FFFFFF;" d="M0,83.509v314.895c0,45.764,89.043,82.869,198.882,82.869V166.377C89.043,166.377,0,129.28,0,83.509
		z"/>
	<ellipse style="fill:#FFFFFF;" cx="198.882" cy="83.509" rx="198.882" ry="82.899"/>
</g>
<g>
	<path style="fill:#FF5722;" d="M198.882,249.246C79.91,249.246,0,210.68,0,174.667v35.689
		c32.218,32.881,108.16,55.454,198.882,55.454c90.714,0,166.664-22.573,198.882-55.454v-35.689
		C397.764,210.68,317.847,249.246,198.882,249.246z"/>
	<path style="fill:#FF5722;" d="M198.882,356.969C79.91,356.969,0,318.404,0,282.391v35.697
		c32.218,32.873,108.16,55.447,198.882,55.447c90.714,0,166.664-22.573,198.882-55.447v-35.697
		C397.764,318.404,317.847,356.969,198.882,356.969z"/>
</g>
<g>
	<path style="fill:#FFC7B2;" d="M198.882,249.246C79.91,249.246,0,210.68,0,174.667v35.689
		c32.218,32.881,108.16,55.454,198.882,55.454V249.246z"/>
	<path style="fill:#FFC7B2;" d="M0,282.391v35.697c32.218,32.873,108.16,55.447,198.882,55.447v-16.565
		C79.91,356.969,0,318.404,0,282.391z"/>
</g>
<circle style="fill:#D22600;" cx="346.353" cy="345.743" r="135.529"/>
<path style="fill:#FFFFFF;" d="M423.861,292.201l-20.638,20.631l-23.959-23.959l20.631-20.638
	c-11.279-2.982-23.763-0.181-32.617,8.651c-8.84,8.84-11.633,21.338-8.644,32.617l-54.566,54.558
	c-11.279-2.982-23.755-0.181-32.61,8.651c-8.847,8.84-11.64,21.331-8.659,32.617l20.646-20.638l23.959,23.959l-20.631,20.646
	c11.279,2.982,23.77,0.181,32.61-8.659c8.855-8.84,11.64-21.331,8.651-32.61l54.558-54.566c11.279,2.982,23.778,0.188,32.617-8.651
	C424.056,315.972,426.835,303.48,423.861,292.201z"/>
<g>
</g>
<g>
</g>
<g>
</g>
<g>
</g>
<g>
</g>
<g>
</g>
<g>
</g>
<g>
</g>
<g>
</g>
<g>
</g>
<g>
</g>
<g>
</g>
<g>
</g>
<g>
</g>
<g>
</g>
</svg>
