<?xml version="1.0" encoding="iso-8859-1"?>
<!-- Generator: Adobe Illustrator 19.0.0, SVG Export Plug-In . SVG Version: 6.00 Build 0)  -->
<svg version="1.1" id="Layer_1" xmlns="http://www.w3.org/2000/svg" xmlns:xlink="http://www.w3.org/1999/xlink" x="0px" y="0px"
	 viewBox="0 0 481.882 481.882" style="enable-background:new 0 0 481.882 481.882;" xml:space="preserve">
<path style="fill:#2C0900;" d="M316.235,256c0-8.312,6.746-15.059,15.059-15.059h120.471c8.312,0,15.059,6.746,15.059,15.059
	v210.824c0,8.312-6.746,15.059-15.059,15.059H331.294c-8.312,0-15.059-6.746-15.059-15.059V256z"/>
<path style="fill:#7A1C05;" d="M466.824,285.131V256c0-8.312-6.746-15.059-15.059-15.059H331.294
	c-8.312,0-15.059,6.746-15.059,15.059v179.72L466.824,285.131z"/>
<path style="fill:#2C0900;" d="M15.059,15.059C15.059,6.746,21.805,0,30.118,0h210.824C249.254,0,256,6.746,256,15.059v150.588
	c0,8.312-6.746,15.059-15.059,15.059H30.118c-8.312,0-15.059-6.746-15.059-15.059V15.059z"/>
<path style="fill:#7A1C05;" d="M30.118,0c-8.312,0-15.059,6.746-15.059,15.059v150.588c0,8.312,6.746,15.059,15.059,15.059h3.908
	L214.731,0H30.118z"/>
<path style="fill:#FFFFFF;" d="M195.765,218.353c0,4.164-3.366,7.529-7.529,7.529H82.824c-4.164,0-7.529-3.366-7.529-7.529
	c0-4.164,3.366-7.529,7.529-7.529h105.412C192.399,210.824,195.765,214.189,195.765,218.353z"/>
<rect x="105.412" y="180.706" style="fill:#FFE4DE;" width="60.235" height="30.118"/>
<path style="fill:#FFFFFF;" d="M256,165.647v-45.176H15.059v45.176c0,8.312,6.746,15.059,15.059,15.059h210.824
	C249.254,180.706,256,173.96,256,165.647z"/>
<circle style="fill:#FFC7B2;" cx="135.529" cy="150.588" r="15.059"/>
<g>
	<path style="fill:#FFFFFF;" d="M316.235,256v30.118h150.588V256c0-8.312-6.746-15.059-15.059-15.059H331.294
		C322.982,240.941,316.235,247.688,316.235,256z"/>
	<path style="fill:#FFFFFF;" d="M466.824,466.824v-30.118H316.235v30.118c0,8.312,6.746,15.059,15.059,15.059h120.471
		C460.077,481.882,466.824,475.136,466.824,466.824z"/>
</g>
<circle style="fill:#FFC7B2;" cx="391.529" cy="459.294" r="15.059"/>
<g>
	<path style="fill:#AC2200;" d="M286.118,76.318c3.682-0.625,7.439-1.024,11.294-1.024c37.368,0,67.765,30.396,67.765,67.765
		h-33.882l56.471,67.765l56.471-67.765h-33.882c0-62.276-50.665-112.941-112.941-112.941c-3.81,0-7.575,0.203-11.294,0.572V76.318z"
		/>
	<path style="fill:#AC2200;" d="M240.941,405.564c-3.682,0.625-7.439,1.024-11.294,1.024c-37.368,0-67.765-30.396-67.765-67.765
		h33.882l-56.471-67.765l-56.471,67.765h33.882c0,62.276,50.665,112.941,112.941,112.941c3.81,0,7.575-0.188,11.294-0.572V405.564z"
		/>
</g>
<g>
</g>
<g>
</g>
<g>
</g>
<g>
</g>
<g>
</g>
<g>
</g>
<g>
</g>
<g>
</g>
<g>
</g>
<g>
</g>
<g>
</g>
<g>
</g>
<g>
</g>
<g>
</g>
<g>
</g>
</svg>
